<?xml version="1.0" encoding="UTF-8" standalone="no"?>
<!DOCTYPE svg PUBLIC "-//W3C//DTD SVG 1.1//EN" "http://www.w3.org/Graphics/SVG/1.1/DTD/svg11.dtd">
<svg width="100%" height="100%" viewBox="0 0 838 413" version="1.1" xmlns="http://www.w3.org/2000/svg" xmlns:xlink="http://www.w3.org/1999/xlink" xml:space="preserve" xmlns:serif="http://www.serif.com/" style="fill-rule:evenodd;clip-rule:evenodd;stroke-linejoin:round;stroke-miterlimit:2;">
    <g transform="matrix(1,0,0,1,-121.006,-333.674)">
        <g transform="matrix(0.999283,0,0,1.56476,-10.6009,-355.817)">
            <g transform="matrix(878.845,0,0,561.245,115.827,698.774)">
                <path d="M0.313,-0.157C0.304,-0.126 0.279,-0.112 0.247,-0.112C0.202,-0.112 0.174,-0.141 0.169,-0.195L0.46,-0.195L0.46,-0.234C0.46,-0.368 0.382,-0.46 0.244,-0.46C0.114,-0.46 0.018,-0.364 0.018,-0.225C0.018,-0.085 0.109,0.01 0.247,0.01C0.364,0.01 0.442,-0.053 0.458,-0.157L0.313,-0.157ZM0.244,-0.338C0.283,-0.338 0.306,-0.31 0.308,-0.273L0.172,-0.273C0.182,-0.315 0.207,-0.338 0.244,-0.338Z" style="fill:white;fill-rule:nonzero;"/>
            </g>
            <g transform="matrix(878.845,0,0,561.245,510.049,699.146)">
                <path d="M0.339,-0L0.519,-0L0.343,-0.263L0.524,-0.461L0.335,-0.461L0.199,-0.306L0.199,-0.461L0.042,-0.461L0.042,-0L0.199,-0L0.199,-0.132L0.229,-0.167L0.339,-0Z" style="fill:white;fill-rule:nonzero;"/>
            </g>
        </g>
    </g>
</svg>